PathFileType   4   (X/Y/Z)																																																																																																																							
DataRate	CameraRate	NumFrames	NumMarkers	Units	OrigDataRate	OrigDataStartFrame	OrigNumFrames																																																																																																																
120	120	7	39	mm	120	118	156																																																																																																																
Frame#	Time	Sternum	R.Acromium	L.Acromium	Top.Head	R.ASIS	L.ASIS	V.Sacral	R.Thigh.Upper	R.Thigh.Front	R.Thigh.Rear	R.Knee.Lat	R.Knee.Med	R.Shank.Upper	R.Shank.Front	R.Shank.Rear	R.Ankle.Lat	R.Ankle.Med	R.Heel	R.Midfoot.Sup	R.Midfoot.Lat	R.Toe.Lat	R.Toe.Med	R.Toe.Tip	L.Thigh.Upper	L.Thigh.Front	L.Thigh.Rear	L.Knee.Lat	L.Knee.Med	L.Shank.Upper	L.Shank.Front	L.Shank.Rear	L.Ankle.Lat	L.Ankle.Med	L.Heel	L.Midfoot.Sup	L.Midfoot.Lat	L.Toe.Lat	L.Toe.Med	L.Toe.Tip																																																																															
 	 	X1	Y1	Z1	X2	Y2	Z2	X3	Y3	Z3	X4	Y4	Z4	X5	Y5	Z5	X6	Y6	Z6	X7	Y7	Z7	X8	Y8	Z8	X9	Y9	Z9	X10	Y10	Z10	X11	Y11	Z11	X12	Y12	Z12	X13	Y13	Z13	X14	Y14	Z14	X15	Y15	Z15	X16	Y16	Z16	X17	Y17	Z17	X18	Y18	Z18	X19	Y19	Z19	X20	Y20	Z20	X21	Y21	Z21	X22	Y22	Z22	X23	Y23	Z23	X24	Y24	Z24	X25	Y25	Z25	X26	Y26	Z26	X27	Y27	Z27	X28	Y28	Z28	X29	Y29	Z29	X30	Y30	Z30	X31	Y31	Z31	X32	Y32	Z32	X33	Y33	Z33	X34	Y34	Z34	X35	Y35	Z35	X36	Y36	Z36	X37	Y37	Z37	X38	Y38	Z38	X39	Y39	Z39	
																																																																																																																							
	118	1.24167	2265.856229	-0.000992919	1249.779328	2154.370222	-160.4625222	1369.363009	2158.373185	163.6853836	1382.697304	2258.899348	-9.995724821	1620.601775	2250.57738	-119.563877	908.1138502	2255.538799	121.1976851	900.0502776	2072.637975	-5.695750883	929.4753594	2187.866014	-151.852957	637.9146781	2232.918516	-72.89581202	584.7445507	2174.107959	-144.0380039	538.3046809	2137.748045	-128.7803171	469.168332	2135.602553	-28.27664901	455.4324719	2107.316823	-139.9773559	396.2374775	2168.512534	-92.759033	358.6496445	2112.69092	-148.0192813	321.2650879	2086.821543	-126.2596959	75.08994411	2094.942013	-48.83628676	86.83974016	2026.083771	-81.79932302	54.99099616	2153.223331	-50.48617332	65.94875017	2148.676273	-145.6838404	48.39162278	2228.267621	-153.7519611	27.65767226	2230.256854	-57.55224411	39.26936491	2284.312393	-85.7250635	40.0572085	2247.686928	155.8898652	674.7503891	2320.821282	93.1736068	667.8417288	2274.773691	143.1256019	588.4329752	2295.86425	130.2344758	480.572354	2296.575206	33.90932835	481.5065694	2284.183783	146.028905	411.3995471	2304.284184	97.96343807	357.184087	2256.744199	155.397025	381.8977135	2172.368591	125.837295	122.7287792	2182.939996	46.58044596	140.3031698	2101.301854	79.29350631	132.1906354	2247.333968	55.87355549	86.81823418	2231.832471	143.3687015	91.89258667	2278.753474	152.6622596	54.83631582	2293.116899	62.03409965	50.11561779	2334.826867	84.48225282	37.23677047
	119	1.25	2272.157622	-0.000992919	1249.219598	2160.913603	-160.4625222	1369.028423	2164.943515	163.6853836	1382.354598	2265.950438	-9.995724821	1620.055351	2256.217601	-119.563877	907.6451218	2261.167033	121.1976851	899.5741858	2078.310134	-5.695750883	929.2710123	2192.264845	-151.852957	637.3884207	2236.995047	-72.89581202	583.9468694	2177.904781	-144.0380039	537.8634278	2141.12752	-128.7803171	468.9481814	2138.899018	-28.27664901	455.2255444	2110.152108	-139.9773559	396.2558429	2171.026972	-92.759033	358.1505768	2114.890438	-148.0192813	321.2405887	2086.935052	-126.2596959	75.29359745	2095.154839	-48.83628676	86.97413037	2026.226785	-81.79932302	55.17639013	2153.370109	-50.48617332	66.0903877	2148.817009	-145.6838404	48.53482625	2228.401217	-153.7519611	27.77348514	2230.394446	-57.55224411	39.3844925	2284.450253	-85.7250635	40.15373253	2254.636777	155.8898652	675.3492647	2327.835289	93.1736068	669.1572334	2282.567657	143.1256019	589.3012861	2304.713621	130.2344758	481.6524051	2305.415393	33.90932835	482.593539	2294.912323	146.028905	412.1275514	2316.861347	97.96343807	358.6337892	2268.501287	155.397025	381.7014751	2193.069031	125.837295	119.7897449	2203.031126	46.58044596	137.7165537	2121.712889	79.29350631	126.6596429	2269.301754	55.87355549	86.64014421	2253.625602	143.3687015	91.14610777	2301.866096	152.6622596	55.82469326	2316.392043	62.03409965	51.63066739	2358.543719	84.48225282	40.28067268
	120	1.25833	2278.504713	-0.000992919	1248.611178	2167.501777	-160.4625222	1368.643401	2171.558472	163.6853836	1381.961448	2273.043056	-9.995724821	1619.45866	2261.903404	-119.563877	907.120284	2266.840308	121.1976851	899.0416785	2084.029704	-5.695750883	929.0221767	2196.693384	-151.852957	636.8177435	2241.096955	-72.89581202	583.1044929	2181.726845	-144.0380039	537.3821446	2144.530134	-128.7803171	468.6923871	2142.218014	-28.27664901	454.9835909	2113.014269	-139.9773559	396.2415292	2173.566789	-92.759033	357.6260827	2117.122085	-148.0192813	321.1891077	2087.101017	-126.2596959	75.4857061	2095.418664	-48.83628676	87.09675655	2026.417167	-81.79932302	55.36208911	2153.566195	-50.48617332	66.20943329	2149.003892	-145.6838404	48.6562611	2228.577205	-153.7519611	27.8532027	2230.576521	-57.55224411	39.46316356	2284.632724	-85.7250635	40.204066	2261.535194	155.8898652	675.8578901	2334.787723	93.1736068	670.3415274	2290.258852	143.1256019	590.0712937	2313.397153	130.2344758	482.6313368	2314.090211	33.90932835	483.5789059	2305.472144	146.028905	412.8146833	2329.236767	97.96343807	360.102399	2280.116507	155.397025	381.5036521	2213.680509	125.837295	117.1666744	2223.024042	46.58044596	135.4235142	2142.130619	79.29350631	121.5210274	2291.037666	55.87355549	86.72556063	2275.21251	143.3687015	90.67649515	2324.667349	152.6622596	57.07639795	2339.332025	62.03409965	53.39668861	2381.85737	84.48225282	43.53863845
	121	1.26667	2284.892507	-0.000992919	1247.959243	2174.127971	-160.4625222	1368.211494	2178.211085	163.6853836	1381.521465	2280.166736	-9.995724821	1618.816833	2267.6356	-119.563877	906.5458697	2272.55967	121.1976851	898.4594356	2089.7969	-5.695750883	928.7301622	2201.149993	-151.852957	636.2057142	2245.221108	-72.89581202	582.2193533	2185.569854	-144.0380039	536.864409	2147.949783	-128.7803171	468.4056016	2145.553073	-28.27664901	454.7113409	2115.897019	-139.9773559	396.199019	2176.126449	-92.759033	357.0815526	2119.380806	-148.0192813	321.1150436	2087.31832	-126.2596959	75.66968703	2095.732199	-48.83628676	87.21119432	2026.652695	-81.79932302	55.55444023	2153.809796	-50.48617332	66.30673323	2149.234373	-145.6838404	48.75697642	2228.792113	-153.7519611	27.89444012	2230.800107	-57.55224411	39.50290319	2284.856848	-85.7250635	40.2033966	2268.38368	155.8898652	676.2754267	2341.681124	93.1736068	671.3919802	2297.847239	143.1256019	590.7401277	2321.912677	130.2344758	483.5040331	2322.597525	33.90932835	484.457553	2315.856696	146.028905	413.4557369	2341.399433	97.96343807	361.5817475	2291.580069	155.397025	381.3008872	2234.168073	125.837295	114.8583185	2242.885601	46.58044596	133.4222219	2162.511586	79.29350631	116.7752683	2312.516533	55.87355549	87.06754016	2296.566086	143.3687015	90.47762664	2347.135752	152.6622596	58.58003237	2361.917161	62.03409965	55.40152067	2404.753361	84.48225282	46.99639724
	122	1.275	2291.316402	-0.000992919	1247.269275	2180.786116	-160.4625222	1367.736873	2184.895127	163.6853836	1381.038872	2287.312421	-9.995724821	1618.13536	2273.414253	-119.563877	905.9283131	2278.325369	121.1976851	897.834005	2095.611302	-5.695750883	928.3973294	2205.632019	-151.852957	635.5560892	2249.363429	-72.89581202	581.2941853	2189.428685	-144.0380039	536.3145274	2151.379682	-128.7803171	468.0931856	2148.89707	-28.27664901	454.4142373	2118.793235	-139.9773559	396.1335931	2178.699424	-92.759033	356.5228764	2121.660359	-148.0192813	321.0235423	2087.583499	-126.2596959	75.84973922	2096.091866	-48.83628676	87.32176751	2026.928983	-81.79932302	55.76018464	2154.096862	-50.48617332	66.38424923	2149.503745	-145.6838404	48.83911512	2229.040407	-153.7519611	27.89636483	2231.060105	-57.55224411	39.50279716	2285.117526	-85.7250635	40.14878037	2275.181814	155.8898652	676.6011783	2348.51607	93.1736068	672.3058053	2305.330501	143.1256019	591.3049571	2330.255302	130.2344758	484.2653402	2330.93248	33.90932835	485.2243227	2326.05701	146.028905	414.0447698	2353.337067	97.96343807	363.0630012	2302.880166	155.397025	381.0883915	2254.499226	125.837295	112.8588922	2262.584841	46.58044596	131.7066146	2182.815208	79.29350631	112.4166027	2333.715786	55.87355549	87.65678371	2317.661846	143.3687015	90.54060934	2369.252899	152.6622596	60.32288436	2384.13082	62.03409965	57.6320728	2427.220204	84.48225282	50.6398579
	123	1.28333	2297.772845	-0.000992919	1246.546654	2187.471574	-160.4625222	1367.223975	2191.605843	163.6853836	1380.518146	2294.473292	-9.995724821	1617.419675	2279.2392	-119.563877	905.2736123	2284.137373	121.1976851	897.1714658	2101.472385	-5.695750883	928.0267603	2210.136268	-151.852957	634.8729712	2253.519344	-72.89581202	580.3321689	2193.297826	-144.0380039	535.7371931	2154.812784	-128.7803171	467.7608762	2152.242637	-28.27664901	454.0981044	2121.695362	-139.9773559	396.0510147	2181.278581	-92.759033	355.9561223	2123.953704	-148.0192813	320.9201953	2087.891088	-126.2596959	76.03060014	2096.492145	-48.83628676	87.43330037	2027.239847	-81.79932302	55.98615758	2154.421432	-50.48617332	66.44486652	2149.805506	-145.6838404	48.90571932	2229.314871	-153.7519611	27.85957129	2231.349659	-57.55224411	39.46336776	2285.407873	-85.7250635	40.03906369	2281.927878	155.8898652	676.834333	2355.291815	93.1736068	673.0798579	2312.704736	143.1256019	591.7627533	2338.418191	130.2344758	484.9098471	2339.088278	33.90932835	485.8737971	2336.062013	146.028905	414.5748531	2365.036188	97.96343807	364.5364736	2314.003255	155.397025	380.8598693	2274.643461	125.837295	111.1589493	2282.09255	46.58044596	130.2671903	2203.003487	79.29350631	108.4342757	2354.614654	55.87355549	88.48214852	2338.477181	143.3687015	90.85436957	2391.002413	152.6622596	62.29132086	2405.958326	62.03409965	60.07464586	2449.248142	84.48225282	54.4552192
	124	1.29167	2304.259577	-0.000992919	1245.796443	2194.181275	-160.4625222	1366.677185	2198.340079	163.6853836	1379.963701	2301.644693	-9.995724821	1616.674924	2285.110595	-119.563877	904.587108	2289.995926	121.1976851	896.477211	2107.380053	-5.695750883	927.621878	2214.659584	-151.852957	634.160496	2257.684362	-72.89581202	579.3366066	2197.171939	-144.0380039	535.1371762	2158.242323	-128.7803171	467.4144832	2155.582709	-28.27664901	453.768845	2124.595952	-139.9773559	395.9572441	2183.85669	-92.759033	355.3872397	2126.253518	-148.0192813	320.8107698	2088.234056	-126.2596959	76.21733852	2096.926008	-48.83628676	87.5509051	2027.577753	-81.79932302	56.23905752	2154.776075	-50.48617332	66.49220555	2150.131808	-145.6838404	48.96054139	2229.607055	-153.7519611	27.78592009	2231.660594	-57.55224411	39.38641283	2285.719668	-85.7250635	39.87474067	2288.619643	155.8898652	676.9737826	2362.00707	93.1736068	673.7105369	2319.965335	143.1256019	592.1101493	2346.393555	130.2344758	485.43178	2347.057174	33.90932835	486.4001944	2345.860011	146.028905	415.0383743	2376.483306	97.96343807	365.991906	2324.935431	155.397025	380.6079967	2294.572491	125.837295	109.7466455	2301.381575	46.58044596	129.0921926	2223.041342	79.29350631	104.8141874	2375.194138	55.87355549	89.53151443	2358.991376	143.3687015	91.40660197	2412.369723	152.6622596	64.4715012	2427.386703	62.03409965	62.71556899	2470.828788	84.48225282	58.42938357
